<svg version="1.1" xmlns="http://www.w3.org/2000/svg" xmlns:xlink="http://www.w3.org/1999/xlink" width="29.8" height="29.8" viewBox="0,0,29.8,29.8"><g transform="translate(-305.1,-183.1)"><g data-paper-data="{&quot;isPaintingLayer&quot;:true}" fill-rule="nonzero" stroke-linejoin="miter" stroke-miterlimit="10" stroke-dasharray="" stroke-dashoffset="0" style="mix-blend-mode: normal"><path d="M305.1,198c0,-8.22904 6.67096,-14.9 14.9,-14.9c8.22904,0 14.9,6.67096 14.9,14.9c0,8.22904 -6.67096,14.9 -14.9,14.9c-8.22904,0 -14.9,-6.67096 -14.9,-14.9z" fill="#ffffff" stroke="none" stroke-width="0" stroke-linecap="butt"/><path d="M316.22049,195.85365c0,-1.84652 1.4969,-3.34341 3.34341,-3.34341c1.84652,0 3.34341,1.4969 3.34341,3.34341c0,1.84652 -1.4969,3.34341 -3.34341,3.34341c-1.84652,0 -3.34341,-1.4969 -3.34341,-3.34341z" fill="none" stroke="#000000" stroke-width="1.5" stroke-linecap="butt"/><path d="M321.65437,198.76991l2.87029,3.36114" fill="none" stroke="#000000" stroke-width="1.5" stroke-linecap="round"/></g></g></svg>